<?xml version="1.0" encoding="iso-8859-1"?>
<!-- Generator: Adobe Illustrator 18.0.0, SVG Export Plug-In . SVG Version: 6.00 Build 0)  -->
<!DOCTYPE svg PUBLIC "-//W3C//DTD SVG 1.1//EN" "http://www.w3.org/Graphics/SVG/1.1/DTD/svg11.dtd">
<svg version="1.1" id="Capa_1" xmlns="http://www.w3.org/2000/svg" x="0px" y="0px"
     viewBox="0 0 465.69 465.69" style="enable-background:new 0 0 465.69 465.69;" xml:space="preserve">
<g>
	<path d="M465.659,160.382c-0.488-16.908-6.663-32.681-17.385-44.413c-12.149-13.293-29.019-20.319-48.787-20.319h-65.593
		l-9.091-44.082c-3.151-15.279-16.761-26.369-32.361-26.369H189.939c-16.19,0-29.893,11.587-32.583,27.553l-7.228,42.898H66.213
		c-19.771,0-36.644,7.026-48.794,20.32C6.694,127.702,0.519,143.476,0.031,160.385c-0.483,16.734,4.683,32.621,14.547,44.733
		c11.179,13.727,27.415,21.58,46.931,22.708c0.517,0.031,1.039,0.059,1.565,0.084v0.133h74.155v58.902h-6.911
		c-4.142,0-7.5,3.358-7.5,7.5v138.546c0,4.142,3.358,7.5,7.5,7.5h19.801c53.297,0,103.836-20.313,142.308-57.196
		c18.997-18.213,34.074-39.54,44.748-62.872c4.437,7.698,10.306,14.531,17.446,20.209c1.38,1.098,3.027,1.63,4.663,1.63
		c2.207,0,4.394-0.97,5.875-2.832c6.801-8.551,11.47-18.348,13.813-28.803c9.919,5.21,21.193,8.175,33.153,8.175
		c4.142,0,7.5-3.358,7.5-7.5c0-19.111-7.442-37.078-20.956-50.592c-11.73-11.73-26.818-18.877-43.094-20.561v-12.106h41.253
		c2.507,0,4.979-0.073,7.329-0.216c19.539-1.129,35.775-8.983,46.954-22.711C460.976,193.004,466.142,177.117,465.659,160.382z
		 M172.148,55.243c1.469-8.718,8.951-15.045,17.792-15.045h102.502c8.519,0,15.95,6.056,17.671,14.398l8.466,41.053h-83.764
		c-25.238,0-48.243,14.748-59.421,37.395h-16.354L172.148,55.243z M156.512,148.044h12.679c-4.399,9.829-10.208,18.917-17.232,27.02
		L156.512,148.044z M62.397,212.853c-33.706-1.949-48.08-27.539-47.372-52.035c0.698-24.163,17.014-50.168,51.188-50.168h81.388
		l-13.654,81.041c-18.944,13.967-41.374,21.353-65.076,21.353C66.659,213.043,64.488,212.98,62.397,212.853z M293.77,228.043
		l-5.884,37.378c-31.292,12.167-64.383,19.305-98.159,21.082V258.18h-0.009c0.001-1.801-0.635-3.608-1.942-5.045
		c-9.17-10.086-22.674-14.283-35.547-11.605v-13.486H293.77z M152.229,257.083c1.006-0.358,2.024-0.647,3.049-0.859
		c-0.399,1.065-0.628,2.213-0.628,3.417c0,5.385,4.365,9.75,9.75,9.75c4.998,0,9.112-3.763,9.677-8.61
		c0.222,0.179,0.433,0.374,0.649,0.562v25.589c-0.586,0.003-1.172,0.016-1.759,0.016h-20.739V257.083z M282.048,372.467
		c-35.666,34.193-82.519,53.024-131.928,53.024h-12.301V301.945h35.15c58.66,0,115.902-15.412,166.475-44.698
		C334.3,301.129,314.23,341.613,282.048,372.467z M357.996,323.428c-6.079-6.419-10.495-14.135-13.021-22.695
		c1.976-5.862,3.693-11.821,5.135-17.866c4.024,6.979,9.187,13.215,15.24,18.459C364.467,309.164,361.974,316.653,357.996,323.428z
		 M404.052,303.234c-12.041-1.711-23.159-7.241-31.911-15.994c-8.753-8.753-14.283-19.871-15.994-31.912
		C380.884,258.878,400.503,278.497,404.052,303.234z M340.576,239.062c-11.76,7.316-23.925,13.835-36.427,19.516l4.806-30.534
		h31.621V239.062z M403.27,212.854c-2.069,0.126-4.237,0.189-6.441,0.189H128.323c5.948-3.235,11.668-6.979,17.121-11.216
		c0.095-0.074,0.188-0.15,0.28-0.229c18.681-14.584,32.767-34.053,40.748-56.326c7.419-20.709,26.846-34.623,48.343-34.623h164.673
		c34.167,0,50.48,26.004,51.178,50.166C451.372,185.312,436.999,210.903,403.27,212.854z"/>
	<path d="M227.545,265.68c2.04,0,4.072-0.827,5.552-2.455c1.065-1.172,2.237-2.196,3.475-3.101c0.254,5.158,4.504,9.265,9.725,9.265
		c5.385,0,9.75-4.365,9.75-9.75c0-1.112-0.195-2.177-0.538-3.173c1.379,0.351,2.744,0.819,4.073,1.439l2.292,1.07
		c3.755,1.75,8.216,0.129,9.968-3.625c1.751-3.754,0.129-8.217-3.625-9.968l-2.293-1.07c-15.079-7.037-32.732-3.492-43.926,8.82
		c-2.787,3.065-2.561,7.809,0.504,10.595C223.939,265.036,225.744,265.68,227.545,265.68z"/>
</g>
<g>
</g>
<g>
</g>
<g>
</g>
<g>
</g>
<g>
</g>
<g>
</g>
<g>
</g>
<g>
</g>
<g>
</g>
<g>
</g>
<g>
</g>
<g>
</g>
<g>
</g>
<g>
</g>
<g>
</g>
</svg>
