<?xml version="1.0" encoding="iso-8859-1"?>
<!-- Generator: Adobe Illustrator 16.0.0, SVG Export Plug-In . SVG Version: 6.00 Build 0)  -->
<!DOCTYPE svg PUBLIC "-//W3C//DTD SVG 1.1//EN" "http://www.w3.org/Graphics/SVG/1.1/DTD/svg11.dtd">
<svg version="1.1" id="Capa_1" xmlns="http://www.w3.org/2000/svg" xmlns:xlink="http://www.w3.org/1999/xlink" x="0px" y="0px"
	 width="53.768px" height="53.768px" viewBox="0 0 53.768 53.768" style="enable-background:new 0 0 53.768 53.768;"
	 xml:space="preserve">
<g>
	<path d="M39.714,23.75h-1.08V6.669c0-3.678-2.992-6.669-6.67-6.669h-10.16c-3.678,0-6.67,2.991-6.67,6.669V23.75h-1.08
		c-3.678,0-6.67,2.991-6.67,6.669v16.679c0,3.678,2.992,6.67,6.67,6.67h25.66c3.678,0,6.67-2.992,6.67-6.67V30.419
		C46.384,26.741,43.392,23.75,39.714,23.75z M17.134,6.669c0-2.575,2.095-4.669,4.67-4.669h10.16c2.575,0,4.67,2.094,4.67,4.669
		V23.75h-19.5V6.669z M44.384,47.098c0,2.574-2.095,4.67-4.67,4.67h-25.66c-2.575,0-4.67-2.096-4.67-4.67V30.419
		c0-2.575,2.095-4.669,4.67-4.669h2.08h21.5h2.08c2.575,0,4.67,2.094,4.67,4.669V47.098z"/>
</g>
<g>
</g>
<g>
</g>
<g>
</g>
<g>
</g>
<g>
</g>
<g>
</g>
<g>
</g>
<g>
</g>
<g>
</g>
<g>
</g>
<g>
</g>
<g>
</g>
<g>
</g>
<g>
</g>
<g>
</g>
</svg>
