<svg xmlns="http://www.w3.org/2000/svg" height="511pt" version="1.1" viewBox="0 0 511.97577 511" width="511pt">
<g id="surface1">
<path d="M 390.066406 347.953125 L 350.066406 387.953125 C 320.199219 399.953125 287.929688 406.089844 255.664062 405.820312 C 198.332031 405.820312 159.132812 387.15625 158.597656 386.621094 C 147.929688 381.289062 135.132812 385.554688 130.066406 396.222656 C 125.53125 405.289062 127.929688 416.222656 135.929688 422.355469 L 242.597656 507.6875 C 250.332031 513.820312 261.53125 513.820312 269.265625 507.6875 L 361 434.355469 L 390.066406 463.421875 L 420.199219 433.289062 L 392.730469 405.820312 L 420.199219 378.355469 Z M 390.066406 347.953125 " style=" stroke:none;fill-rule:nonzero;fill:rgb(0%,0%,0%);fill-opacity:1;" />
<path d="M 255.929688 384.488281 C 329.796875 384.488281 392.464844 330.621094 403.664062 257.554688 C 365.796875 269.554688 317.53125 277.820312 255.929688 277.820312 C 194.332031 277.820312 146.066406 269.554688 108.199219 257.554688 C 119.398438 330.621094 182.066406 384.488281 255.929688 384.488281 Z M 255.929688 384.488281 " style=" stroke:none;fill-rule:nonzero;fill:rgb(0%,0%,0%);fill-opacity:1;" />
<path d="M 508.730469 138.621094 C 504.730469 132.222656 498.066406 128.488281 490.597656 128.488281 L 425 128.488281 C 426.332031 163.953125 398.597656 193.554688 363.398438 194.886719 C 362.597656 194.886719 361.796875 194.886719 361 194.886719 L 150.863281 194.886719 C 115.398438 194.886719 86.863281 166.089844 86.863281 130.886719 C 86.863281 130.089844 86.863281 129.289062 86.863281 128.488281 L 21.265625 128.488281 C 5.796875 128.753906 -4.601562 145.289062 2.066406 159.421875 C 4.199219 163.421875 53 256.488281 255.929688 256.488281 C 458.863281 256.488281 507.664062 163.421875 509.796875 159.421875 C 513 152.753906 512.730469 145.023438 508.730469 138.621094 Z M 508.730469 138.621094 " style=" stroke:none;fill-rule:nonzero;fill:rgb(0%,0%,0%);fill-opacity:1;" />
<path d="M 150.863281 173.554688 L 361.265625 173.554688 C 385 173.554688 403.929688 154.355469 403.929688 130.621094 C 403.929688 129.554688 403.929688 128.222656 403.664062 127.15625 C 399.664062 77.289062 387.664062 40.488281 367.929688 20.488281 C 355.132812 7.6875 338.066406 0.488281 319.929688 0.488281 C 290.863281 0.488281 269.53125 14.886719 255.929688 29.023438 C 242.332031 14.886719 221 0.488281 191.929688 0.488281 C 173.796875 0.488281 156.730469 7.6875 143.929688 20.488281 C 123.929688 40.488281 112.199219 77.289062 108.199219 127.15625 C 106.332031 150.621094 123.664062 171.421875 147.132812 173.289062 C 148.464844 173.554688 149.53125 173.554688 150.863281 173.554688 Z M 150.863281 173.554688 " style=" stroke:none;fill-rule:nonzero;fill:rgb(0%,0%,0%);fill-opacity:1;" />
</g>
</svg>