<svg height="512pt" viewBox="0 0 512 512" width="512pt" xmlns="http://www.w3.org/2000/svg"><path d="m407 61h-76v-61h-150v68.785156l-49.394531-49.390625-21.210938 21.210938 20.390625 20.394531h-115.785156v30h114.363281l-19.085937 19.511719 21.445312 20.976562 49.277344-50.371093v69.882812h150v-60h76c41.355469 0 75 33.644531 75 75s-33.644531 75-75 75h-24.785156l19.390625-19.394531-21.210938-21.210938-49.394531 49.390625v-68.785156h-150v60h-75c-58.449219 0-106 47.101562-106 105s47.550781 105 106 105h23.785156l-19.390625 19.394531 21.210938 21.210938 49.394531-49.390625v69.785156h150v-151h-150v68.785156l-49.394531-49.390625-21.210938 21.210938 19.390625 19.394531h-23.785156c-41.90625 0-76-33.644531-76-75s34.09375-75 76-75h75v60h150v-68.785156l49.394531 49.390625 21.210938-21.210938-19.390625-19.394531h24.785156c57.898438 0 105-47.101562 105-105s-47.101562-105-105-105zm-106 60h-90v-91h90zm-90 270h90v91h-90zm90-90h-90v-90h90zm0 0"/></svg>