<?xml version="1.0" encoding="iso-8859-1"?>
<!-- Generator: Adobe Illustrator 18.0.0, SVG Export Plug-In . SVG Version: 6.00 Build 0)  -->
<!DOCTYPE svg PUBLIC "-//W3C//DTD SVG 1.1//EN" "http://www.w3.org/Graphics/SVG/1.1/DTD/svg11.dtd">
<svg version="1.1" id="Capa_1" xmlns="http://www.w3.org/2000/svg" x="0px" y="0px"
     viewBox="0 0 197.385 197.385" style="enable-background:new 0 0 197.385 197.385;" xml:space="preserve">
<g>
	<path d="M197.069,89.158l-19.935-53.321c-0.73-1.954-2.598-3.249-4.684-3.249H24.935c-2.086,0-3.953,1.295-4.684,3.249
		L0.317,89.158c-0.574,1.535-0.358,3.254,0.575,4.601c0.935,1.347,2.47,2.15,4.108,2.15h187.385c1.639,0,3.174-0.803,4.108-2.15
		C197.427,92.413,197.643,90.694,197.069,89.158z M12.207,85.909l16.196-43.321h140.578l16.196,43.321H12.207z"/>
	<ellipse cx="82.747" cy="72.027" rx="9.506" ry="4.753"/>
	<ellipse cx="114.638" cy="72.027" rx="9.506" ry="4.753"/>
	<ellipse cx="146.53" cy="72.027" rx="9.506" ry="4.753"/>
	<ellipse cx="83.609" cy="54.502" rx="9.004" ry="2.536"/>
	<ellipse cx="113.817" cy="54.502" rx="9.004" ry="2.536"/>
	<ellipse cx="144.025" cy="54.502" rx="9.004" ry="2.536"/>
	<ellipse cx="50.855" cy="72.027" rx="9.506" ry="4.753"/>
	<ellipse cx="53.401" cy="54.502" rx="9.004" ry="2.536"/>
	<path d="M41.35,155.291c0,5.25,4.256,9.505,9.506,9.505c5.25,0,9.506-4.255,9.506-9.505v-49.773H41.35V155.291z"/>
	<path d="M73.241,155.291c0,5.25,4.256,9.505,9.506,9.505s9.505-4.255,9.505-9.505v-49.773H73.241V155.291z"/>
	<path d="M105.133,155.291c0,5.25,4.256,9.505,9.506,9.505c5.25,0,9.505-4.255,9.505-9.505v-49.773h-19.011V155.291z"/>
	<path d="M137.024,155.291c0,5.25,4.256,9.505,9.505,9.505c5.25,0,9.506-4.255,9.506-9.505v-49.773h-19.011V155.291z"/>
</g>
<g>
</g>
<g>
</g>
<g>
</g>
<g>
</g>
<g>
</g>
<g>
</g>
<g>
</g>
<g>
</g>
<g>
</g>
<g>
</g>
<g>
</g>
<g>
</g>
<g>
</g>
<g>
</g>
<g>
</g>
</svg>
