<?xml version="1.0" encoding="iso-8859-1"?>
<!-- Generator: Adobe Illustrator 16.0.0, SVG Export Plug-In . SVG Version: 6.00 Build 0)  -->
<!DOCTYPE svg PUBLIC "-//W3C//DTD SVG 1.1//EN" "http://www.w3.org/Graphics/SVG/1.1/DTD/svg11.dtd">
<svg version="1.1" id="Capa_1" xmlns="http://www.w3.org/2000/svg" xmlns:xlink="http://www.w3.org/1999/xlink" x="0px" y="0px"
	 width="53.768px" height="53.768px" viewBox="0 0 53.768 53.768" style="enable-background:new 0 0 53.768 53.768;"
	 xml:space="preserve">
<g>
	<path d="M39.714,23.75h-2.08h-20.5V6.669C17.134,4.094,19.228,2,21.803,2h10.161c2.574,0,4.67,2.094,4.67,4.669v7.235
		c0,0.553,0.447,1,1,1s1-0.447,1-1V6.669c0-3.678-2.992-6.669-6.67-6.669H21.803c-3.678,0-6.669,2.991-6.669,6.669V23.75h-1.081
		c-3.678,0-6.669,2.991-6.669,6.669v16.679c0,3.678,2.991,6.67,6.669,6.67h25.661c3.678,0,6.67-2.992,6.67-6.67V30.419
		C46.384,26.741,43.392,23.75,39.714,23.75z M44.384,47.098c0,2.574-2.096,4.67-4.67,4.67H14.053c-2.575,0-4.669-2.096-4.669-4.67
		V30.419c0-2.575,2.094-4.669,4.669-4.669h2.081h21.5h2.08c2.574,0,4.67,2.094,4.67,4.669V47.098z"/>
</g>
<g>
</g>
<g>
</g>
<g>
</g>
<g>
</g>
<g>
</g>
<g>
</g>
<g>
</g>
<g>
</g>
<g>
</g>
<g>
</g>
<g>
</g>
<g>
</g>
<g>
</g>
<g>
</g>
<g>
</g>
</svg>
